<svg width="82" height="14" viewBox="0 0 82 14" fill="none" xmlns="http://www.w3.org/2000/svg">
<path d="M3.584 13.16C3.168 13.16 2.768 13.0853 2.384 12.936C2.01067 12.7867 1.68 12.552 1.392 12.232C1.11467 11.912 0.890667 11.5067 0.72 11.016C0.56 10.5253 0.48 9.93333 0.48 9.24C0.48 8.93067 0.501333 8.58933 0.544 8.216C0.586667 7.832 0.661333 7.448 0.768 7.064C0.874667 6.68 1.024 6.30667 1.216 5.944C1.408 5.58133 1.648 5.26133 1.936 4.984C2.23467 4.696 2.58667 4.46667 2.992 4.296C3.408 4.12533 3.89333 4.04 4.448 4.04C4.98133 4.04 5.408 4.136 5.728 4.328C6.05867 4.50933 6.26667 4.82933 6.352 5.288C6.37333 4.872 6.39467 4.50933 6.416 4.2C6.43733 3.89067 6.45333 3.60267 6.464 3.336C6.48533 3.06933 6.50667 2.80267 6.528 2.536C6.54933 2.26933 6.57067 1.96533 6.592 1.624C6.60267 1.38933 6.62933 1.25067 6.672 1.208C6.69333 1.18667 6.72 1.176 6.752 1.176C6.784 1.16533 6.84267 1.16 6.928 1.16H7.552C7.872 1.16 8.13867 1.19733 8.352 1.272C8.56533 1.34667 8.736 1.448 8.864 1.576C8.992 1.704 9.08267 1.85333 9.136 2.024C9.18933 2.184 9.216 2.35467 9.216 2.536C9.216 2.536 9.20533 2.66933 9.184 2.936C9.16267 3.20267 9.136 3.56 9.104 4.008C9.072 4.44533 9.03467 4.94667 8.992 5.512C8.94933 6.07733 8.90667 6.664 8.864 7.272C8.82133 7.86933 8.77867 8.46667 8.736 9.064C8.69333 9.65067 8.65067 10.1947 8.608 10.696C8.56533 11.1867 8.528 11.6133 8.496 11.976C8.47467 12.328 8.45867 12.5627 8.448 12.68C8.42667 12.808 8.4 12.8933 8.368 12.936C8.336 12.9787 8.24533 13 8.096 13H7.52C7.296 13 7.08267 12.984 6.88 12.952C6.688 12.9093 6.51733 12.8453 6.368 12.76C6.22933 12.664 6.11733 12.5413 6.032 12.392C5.95733 12.232 5.92 12.0293 5.92 11.784C5.728 12.1893 5.43467 12.52 5.04 12.776C4.656 13.032 4.17067 13.16 3.584 13.16ZM4.976 6.168C4.432 6.168 4.02667 6.408 3.76 6.888C3.504 7.35733 3.376 7.992 3.376 8.792C3.376 9.06933 3.392 9.34133 3.424 9.608C3.46667 9.87467 3.536 10.1147 3.632 10.328C3.728 10.5413 3.856 10.712 4.016 10.84C4.18667 10.968 4.4 11.032 4.656 11.032C5.11467 11.032 5.49867 10.808 5.808 10.36C6.11733 9.912 6.272 9.208 6.272 8.248C6.272 7.98133 6.256 7.72533 6.224 7.48C6.192 7.224 6.128 7 6.032 6.808C5.936 6.616 5.80267 6.46133 5.632 6.344C5.46133 6.22667 5.24267 6.168 4.976 6.168ZM13.7344 13.16C12.9984 13.16 12.385 13.0587 11.8944 12.856C11.4144 12.6427 11.0304 12.3547 10.7424 11.992C10.4544 11.6293 10.2517 11.208 10.1344 10.728C10.017 10.2373 9.95838 9.71467 9.95838 9.16C9.95838 8.52 10.033 7.896 10.1824 7.288C10.3424 6.66933 10.609 6.12 10.9824 5.64C11.3557 5.16 11.8464 4.776 12.4544 4.488C13.073 4.18933 13.841 4.04 14.7584 4.04C16.1024 4.04 17.0624 4.37067 17.6384 5.032C18.225 5.68267 18.5184 6.6 18.5184 7.784C18.5184 8.11467 18.4917 8.48267 18.4384 8.888C18.3957 9.28267 18.305 9.67733 18.1664 10.072C18.0384 10.4667 17.857 10.8507 17.6224 11.224C17.3984 11.5973 17.1104 11.928 16.7584 12.216C16.4064 12.504 15.9797 12.7333 15.4784 12.904C14.9877 13.0747 14.4064 13.16 13.7344 13.16ZM14.4864 6.168C14.081 6.168 13.7557 6.27467 13.5104 6.488C13.2757 6.69067 13.0944 6.94133 12.9664 7.24C12.849 7.528 12.769 7.83733 12.7264 8.168C12.6944 8.488 12.6784 8.76 12.6784 8.984C12.6784 9.688 12.7904 10.2053 13.0144 10.536C13.2384 10.8667 13.5584 11.032 13.9744 11.032C14.3477 11.032 14.6517 10.9147 14.8864 10.68C15.1317 10.4453 15.3184 10.1627 15.4464 9.832C15.585 9.50133 15.6757 9.15467 15.7184 8.792C15.7717 8.42933 15.7984 8.12533 15.7984 7.88C15.7984 7.34667 15.697 6.93067 15.4944 6.632C15.3024 6.32267 14.9664 6.168 14.4864 6.168ZM22.9129 6.36C22.8809 6.76533 22.8435 7.16533 22.8009 7.56C22.7689 7.95467 22.7369 8.328 22.7049 8.68C22.6729 9.032 22.6462 9.34667 22.6249 9.624C22.6142 9.90133 22.6089 10.1147 22.6089 10.264C22.6089 10.5413 22.6409 10.728 22.7049 10.824C22.7689 10.9093 22.8755 10.952 23.0249 10.952C23.1422 10.952 23.2435 10.9307 23.3289 10.888C23.4142 10.8453 23.4942 10.7973 23.5689 10.744C23.6435 10.6907 23.7075 10.6427 23.7609 10.6C23.8249 10.5573 23.8942 10.536 23.9689 10.536C24.0435 10.536 24.1129 10.5787 24.1769 10.664C24.2409 10.7493 24.2729 10.9467 24.2729 11.256C24.2729 11.8427 24.1129 12.3067 23.7929 12.648C23.4729 12.9893 22.9235 13.16 22.1449 13.16C21.3769 13.16 20.8062 12.984 20.4329 12.632C20.0702 12.2693 19.8889 11.72 19.8889 10.984C19.8889 10.824 19.8942 10.6373 19.9049 10.424C19.9262 10.2 19.9529 9.912 19.9849 9.56C20.0169 9.208 20.0542 8.776 20.0969 8.264C20.1502 7.752 20.2035 7.11733 20.2569 6.36H19.4089C19.3235 6.36 19.2702 6.344 19.2489 6.312C19.2382 6.26933 19.2329 6.21067 19.2329 6.136L19.2809 5.32C19.2915 5.18133 19.3075 5.048 19.3289 4.92C19.3609 4.78133 19.4142 4.65867 19.4889 4.552C19.5742 4.44533 19.6915 4.36 19.8409 4.296C19.9902 4.232 20.1875 4.2 20.4329 4.2C20.5075 4.008 20.5929 3.77867 20.6889 3.512C20.7849 3.24533 20.8809 2.98933 20.9769 2.744C21.0729 2.488 21.1635 2.27467 21.2489 2.104C21.3449 1.93333 21.4302 1.848 21.5049 1.848H21.9689C22.4169 1.848 22.7262 1.98667 22.8969 2.264C23.0675 2.54133 23.1529 2.872 23.1529 3.256C23.1529 3.46933 23.1369 3.784 23.1049 4.2H24.7849C24.9555 4.2 25.0409 4.27467 25.0409 4.424L24.9769 5.288C24.9555 5.608 24.8649 5.86933 24.7049 6.072C24.5555 6.264 24.2409 6.36 23.7609 6.36H22.9129ZM29.0981 13.16C28.3621 13.16 27.7488 13.0587 27.2581 12.856C26.7781 12.6427 26.3941 12.3547 26.1061 11.992C25.8181 11.6293 25.6155 11.208 25.4981 10.728C25.3808 10.2373 25.3221 9.71467 25.3221 9.16C25.3221 8.52 25.3968 7.896 25.5461 7.288C25.7061 6.66933 25.9728 6.12 26.3461 5.64C26.7195 5.16 27.2101 4.776 27.8181 4.488C28.4368 4.18933 29.2048 4.04 30.1221 4.04C31.4661 4.04 32.4261 4.37067 33.0021 5.032C33.5888 5.68267 33.8821 6.6 33.8821 7.784C33.8821 8.11467 33.8555 8.48267 33.8021 8.888C33.7595 9.28267 33.6688 9.67733 33.5301 10.072C33.4021 10.4667 33.2208 10.8507 32.9861 11.224C32.7621 11.5973 32.4741 11.928 32.1221 12.216C31.7701 12.504 31.3435 12.7333 30.8421 12.904C30.3515 13.0747 29.7701 13.16 29.0981 13.16ZM29.8501 6.168C29.4448 6.168 29.1195 6.27467 28.8741 6.488C28.6395 6.69067 28.4581 6.94133 28.3301 7.24C28.2128 7.528 28.1328 7.83733 28.0901 8.168C28.0581 8.488 28.0421 8.76 28.0421 8.984C28.0421 9.688 28.1541 10.2053 28.3781 10.536C28.6021 10.8667 28.9221 11.032 29.3381 11.032C29.7115 11.032 30.0155 10.9147 30.2501 10.68C30.4955 10.4453 30.6821 10.1627 30.8101 9.832C30.9488 9.50133 31.0395 9.15467 31.0821 8.792C31.1355 8.42933 31.1621 8.12533 31.1621 7.88C31.1621 7.34667 31.0608 6.93067 30.8581 6.632C30.6661 6.32267 30.3301 6.168 29.8501 6.168ZM40.0046 8.024C39.9406 8.024 39.866 8.024 39.7806 8.024C39.706 8.01333 39.6313 8.00267 39.5566 7.992C39.482 7.97067 39.418 7.94933 39.3646 7.928C39.3113 7.896 39.2846 7.85867 39.2846 7.816C39.2846 7.67733 39.29 7.54933 39.3006 7.432C39.3113 7.31467 39.3166 7.192 39.3166 7.064C39.3166 6.82933 39.2846 6.63733 39.2206 6.488C39.1566 6.33867 39.0286 6.264 38.8366 6.264C38.538 6.264 38.2873 6.46133 38.0846 6.856C37.8926 7.24 37.77 7.82133 37.7166 8.6C37.6953 8.94133 37.6633 9.33067 37.6206 9.768C37.5886 10.1947 37.5566 10.6107 37.5246 11.016C37.4926 11.4107 37.466 11.7627 37.4446 12.072C37.4233 12.3813 37.4126 12.584 37.4126 12.68C37.4126 12.7867 37.3753 12.8667 37.3006 12.92C37.226 12.9733 37.146 13 37.0606 13H36.4846C36.154 13 35.882 12.968 35.6686 12.904C35.466 12.8293 35.3006 12.728 35.1726 12.6C35.0553 12.472 34.97 12.3173 34.9166 12.136C34.874 11.944 34.8526 11.7253 34.8526 11.48C34.8526 11.32 34.858 11.096 34.8686 10.808C34.89 10.5093 34.922 10.104 34.9646 9.592C35.0073 9.06933 35.0553 8.41333 35.1086 7.624C35.1726 6.824 35.2473 5.83733 35.3326 4.664C35.354 4.35467 35.466 4.2 35.6686 4.2H36.2926C36.5913 4.2 36.842 4.232 37.0446 4.296C37.2473 4.36 37.4126 4.45067 37.5406 4.568C37.6686 4.67467 37.7593 4.80267 37.8126 4.952C37.8766 5.10133 37.9193 5.256 37.9406 5.416C38.0686 5.17067 38.218 4.96267 38.3886 4.792C38.57 4.61067 38.7566 4.46667 38.9486 4.36C39.1406 4.24267 39.338 4.16267 39.5406 4.12C39.7433 4.06667 39.93 4.04 40.1006 4.04C40.3033 4.04 40.506 4.07733 40.7086 4.152C40.922 4.22667 41.114 4.33867 41.2846 4.488C41.4553 4.63733 41.5886 4.82933 41.6846 5.064C41.7913 5.29867 41.8446 5.576 41.8446 5.896C41.8446 6.184 41.802 6.456 41.7166 6.712C41.6313 6.968 41.5086 7.19733 41.3486 7.4C41.1886 7.592 40.9913 7.74667 40.7566 7.864C40.5326 7.97067 40.282 8.024 40.0046 8.024ZM43.9009 13C43.5702 13 43.2982 12.968 43.0849 12.904C42.8822 12.8293 42.7169 12.728 42.5889 12.6C42.4715 12.472 42.3862 12.3173 42.3329 12.136C42.2902 11.944 42.2689 11.7253 42.2689 11.48C42.2689 11.32 42.2742 11.096 42.2849 10.808C42.3062 10.5093 42.3382 10.104 42.3809 9.592C42.4235 9.06933 42.4715 8.41333 42.5249 7.624C42.5889 6.824 42.6635 5.83733 42.7489 4.664C42.7595 4.42933 42.7862 4.29067 42.8289 4.248C42.8609 4.216 42.9462 4.2 43.0849 4.2H43.7089C44.0395 4.2 44.3062 4.232 44.5089 4.296C44.7222 4.36 44.8875 4.456 45.0049 4.584C45.1329 4.712 45.2182 4.86667 45.2609 5.048C45.3142 5.22933 45.3409 5.432 45.3409 5.656C45.3409 5.816 45.3302 6.056 45.3089 6.376C45.2875 6.696 45.2555 7.13333 45.2129 7.688C45.1809 8.232 45.1329 8.91467 45.0689 9.736C45.0049 10.5467 44.9249 11.528 44.8289 12.68C44.8182 12.808 44.7915 12.8933 44.7489 12.936C44.7062 12.9787 44.6155 13 44.4769 13H43.9009ZM42.7649 2.312C42.7649 1.88533 42.9195 1.54933 43.2289 1.304C43.5382 1.05867 43.9542 0.936 44.4769 0.936C44.9355 0.936 45.2662 1.032 45.4689 1.224C45.6822 1.40533 45.7889 1.65067 45.7889 1.96C45.7889 2.35467 45.6395 2.68533 45.3409 2.952C45.0529 3.208 44.6262 3.336 44.0609 3.336C43.1969 3.336 42.7649 2.99467 42.7649 2.312ZM53.7424 11.032C54.0517 11.032 54.3184 10.9893 54.5424 10.904C54.777 10.8187 54.9797 10.7227 55.1504 10.616C55.321 10.5093 55.465 10.4133 55.5824 10.328C55.6997 10.2427 55.8064 10.2 55.9024 10.2C56.1477 10.2 56.2704 10.36 56.2704 10.68C56.2704 10.7547 56.2544 10.8613 56.2224 11C56.1904 11.128 56.1477 11.2667 56.0944 11.416C56.041 11.5547 55.9824 11.688 55.9184 11.816C55.865 11.944 55.8117 12.04 55.7584 12.104C55.705 12.1573 55.609 12.2427 55.4704 12.36C55.3424 12.4773 55.1664 12.5947 54.9424 12.712C54.7184 12.8293 54.457 12.9307 54.1584 13.016C53.8597 13.112 53.529 13.16 53.1664 13.16C52.761 13.16 52.3397 13.1013 51.9024 12.984C51.4757 12.856 51.0864 12.6427 50.7344 12.344C50.3824 12.0347 50.089 11.624 49.8544 11.112C49.6304 10.5893 49.5184 9.93867 49.5184 9.16C49.5184 8.88267 49.5344 8.568 49.5664 8.216C49.609 7.85333 49.689 7.48533 49.8064 7.112C49.9237 6.728 50.0784 6.35467 50.2704 5.992C50.473 5.61867 50.7397 5.288 51.0704 5C51.401 4.712 51.7957 4.48267 52.2544 4.312C52.7237 4.13067 53.2784 4.04 53.9184 4.04C54.441 4.04 54.889 4.104 55.2624 4.232C55.6464 4.34933 55.961 4.51467 56.2064 4.728C56.4517 4.93067 56.633 5.17067 56.7504 5.448C56.8784 5.72533 56.9424 6.024 56.9424 6.344C56.9424 6.92 56.761 7.34667 56.3984 7.624C56.0357 7.89067 55.5237 8.024 54.8624 8.024C54.7024 8.024 54.5904 8.01333 54.5264 7.992C54.473 7.96 54.4464 7.896 54.4464 7.8C54.4464 7.544 54.441 7.31467 54.4304 7.112C54.4197 6.90933 54.3877 6.73867 54.3344 6.6C54.2917 6.46133 54.2224 6.35467 54.1264 6.28C54.0304 6.20533 53.8917 6.168 53.7104 6.168C53.3797 6.168 53.113 6.27467 52.9104 6.488C52.7184 6.70133 52.569 6.96267 52.4624 7.272C52.3664 7.57067 52.3024 7.88 52.2704 8.2C52.249 8.52 52.2384 8.78667 52.2384 9C52.2384 9.75733 52.3557 10.2853 52.5904 10.584C52.8357 10.8827 53.2197 11.032 53.7424 11.032ZM57.1154 11.032C57.1154 10.072 57.5474 9.32 58.4114 8.776C59.2754 8.232 60.55 7.93867 62.2354 7.896C62.246 7.77867 62.2514 7.68267 62.2514 7.608C62.262 7.52267 62.2674 7.42133 62.2674 7.304C62.2674 6.96267 62.2034 6.69067 62.0754 6.488C61.9474 6.28533 61.6807 6.184 61.2754 6.184C61.0514 6.184 60.87 6.216 60.7314 6.28C60.5927 6.344 60.4807 6.43467 60.3954 6.552C60.31 6.65867 60.2407 6.792 60.1874 6.952C60.134 7.112 60.086 7.288 60.0434 7.48C60.022 7.576 59.974 7.64 59.8994 7.672C59.8247 7.69333 59.7074 7.704 59.5474 7.704C58.4594 7.704 57.9154 7.29333 57.9154 6.472C57.9154 6.14133 57.99 5.82667 58.1394 5.528C58.2994 5.22933 58.5287 4.97333 58.8274 4.76C59.1367 4.536 59.5207 4.36 59.9794 4.232C60.438 4.104 60.9714 4.04 61.5794 4.04C62.7634 4.04 63.622 4.28533 64.1554 4.776C64.6887 5.26667 64.9554 5.96 64.9554 6.856C64.9554 6.97333 64.9394 7.18667 64.9074 7.496C64.886 7.79467 64.854 8.11467 64.8114 8.456C64.7794 8.78667 64.7474 9.10133 64.7154 9.4C64.694 9.69867 64.6834 9.90667 64.6834 10.024C64.6834 10.2907 64.7314 10.4827 64.8274 10.6C64.9234 10.7067 65.03 10.7813 65.1474 10.824C65.2754 10.8667 65.3874 10.8987 65.4834 10.92C65.5794 10.9413 65.6274 10.9947 65.6274 11.08C65.6274 11.3147 65.5954 11.5547 65.5314 11.8C65.4674 12.0453 65.3607 12.2693 65.2114 12.472C65.0727 12.6747 64.8754 12.84 64.6194 12.968C64.374 13.096 64.07 13.16 63.7074 13.16C63.1954 13.16 62.8114 13.0373 62.5554 12.792C62.2994 12.5467 62.1287 12.2053 62.0434 11.768C61.7874 12.1413 61.4514 12.4667 61.0354 12.744C60.63 13.0213 60.0967 13.16 59.4354 13.16C59.1154 13.16 58.8114 13.1227 58.5234 13.048C58.246 12.9733 58.0007 12.8507 57.7874 12.68C57.5847 12.5093 57.4194 12.2907 57.2914 12.024C57.174 11.7467 57.1154 11.416 57.1154 11.032ZM62.0914 9.208C61.814 9.208 61.542 9.22933 61.2754 9.272C61.0087 9.31467 60.7687 9.384 60.5554 9.48C60.3527 9.56533 60.1874 9.68267 60.0594 9.832C59.9314 9.98133 59.8674 10.1627 59.8674 10.376C59.8674 10.6213 59.942 10.792 60.0914 10.888C60.2514 10.984 60.422 11.032 60.6034 11.032C60.774 11.032 60.9447 10.9947 61.1154 10.92C61.286 10.8453 61.4354 10.7333 61.5634 10.584C61.702 10.424 61.8194 10.232 61.9154 10.008C62.0114 9.784 62.07 9.51733 62.0914 9.208ZM70.099 4.04C71.0057 4.04 71.6723 4.22133 72.099 4.584C72.5257 4.936 72.739 5.38933 72.739 5.944C72.739 6.41333 72.5897 6.77067 72.291 7.016C72.003 7.26133 71.5817 7.384 71.027 7.384C70.8777 7.384 70.7763 7.368 70.723 7.336C70.6697 7.304 70.643 7.24533 70.643 7.16C70.643 7.064 70.6323 6.95733 70.611 6.84C70.6003 6.712 70.563 6.59467 70.499 6.488C70.4457 6.37067 70.355 6.27467 70.227 6.2C70.1097 6.12533 69.939 6.088 69.715 6.088C69.4163 6.088 69.1763 6.16267 68.995 6.312C68.8137 6.45067 68.723 6.62667 68.723 6.84C68.723 7.064 68.8137 7.24533 68.995 7.384C69.187 7.512 69.4217 7.63467 69.699 7.752C69.987 7.86933 70.2963 7.992 70.627 8.12C70.9577 8.23733 71.2617 8.39733 71.539 8.6C71.827 8.80267 72.0617 9.05867 72.243 9.368C72.435 9.66667 72.531 10.056 72.531 10.536C72.531 11.304 72.259 11.9333 71.715 12.424C71.171 12.9147 70.355 13.16 69.267 13.16C68.9683 13.16 68.6217 13.1333 68.227 13.08C67.843 13.0373 67.475 12.968 67.123 12.872C66.771 12.7653 66.4723 12.6267 66.227 12.456C65.9923 12.2853 65.875 12.072 65.875 11.816C65.875 11.72 65.891 11.6027 65.923 11.464C65.9657 11.3253 66.0243 11.192 66.099 11.064C66.1843 10.936 66.2803 10.8293 66.387 10.744C66.5043 10.648 66.643 10.6 66.803 10.6C66.931 10.6 67.0483 10.632 67.155 10.696C67.2617 10.76 67.3843 10.8293 67.523 10.904C67.6723 10.968 67.8537 11.032 68.067 11.096C68.2803 11.16 68.563 11.192 68.915 11.192C69.1817 11.192 69.4163 11.16 69.619 11.096C69.8323 11.032 69.939 10.888 69.939 10.664C69.939 10.4613 69.8537 10.3013 69.683 10.184C69.5123 10.056 69.2937 9.93867 69.027 9.832C68.771 9.72533 68.4883 9.61333 68.179 9.496C67.8803 9.368 67.5977 9.20267 67.331 9C67.075 8.79733 66.8617 8.54133 66.691 8.232C66.5203 7.912 66.435 7.50133 66.435 7C66.435 6.456 66.5417 5.99733 66.755 5.624C66.979 5.24 67.2617 4.93067 67.603 4.696C67.955 4.46133 68.3497 4.296 68.787 4.2C69.2243 4.09333 69.6617 4.04 70.099 4.04ZM78.9586 11.016C78.9906 10.664 79.0226 10.296 79.0546 9.912C79.0973 9.528 79.1293 9.16 79.1506 8.808C79.1826 8.456 79.2093 8.14133 79.2306 7.864C79.252 7.58667 79.2626 7.384 79.2626 7.256C79.2626 6.97867 79.1933 6.73333 79.0546 6.52C78.9266 6.296 78.6706 6.184 78.2866 6.184C77.7746 6.184 77.3586 6.424 77.0386 6.904C76.7293 7.384 76.548 8.024 76.4946 8.824C76.4733 9.048 76.4466 9.36267 76.4146 9.768C76.3826 10.1627 76.3506 10.568 76.3186 10.984C76.2866 11.3893 76.2546 11.7573 76.2226 12.088C76.2013 12.408 76.1906 12.6053 76.1906 12.68C76.1906 12.808 76.164 12.8933 76.1106 12.936C76.068 12.9787 75.9773 13 75.8386 13H75.2626C74.932 13 74.66 12.968 74.4466 12.904C74.244 12.8293 74.0786 12.728 73.9506 12.6C73.8333 12.472 73.748 12.3173 73.6946 12.136C73.652 11.944 73.6306 11.7253 73.6306 11.48C73.6306 11.2453 73.6466 10.92 73.6786 10.504C73.7213 10.0773 73.7746 9.496 73.8386 8.76C73.9026 8.01333 73.9773 7.064 74.0626 5.912C74.148 4.76 74.2386 3.33067 74.3346 1.624C74.3453 1.38933 74.372 1.25067 74.4146 1.208C74.4466 1.176 74.532 1.16 74.6706 1.16H75.2946C75.6146 1.16 75.8813 1.19733 76.0946 1.272C76.308 1.34667 76.4786 1.448 76.6066 1.576C76.7346 1.704 76.8253 1.85333 76.8786 2.024C76.932 2.184 76.9586 2.35467 76.9586 2.536C76.9586 2.728 76.9373 3.08533 76.8946 3.608C76.8626 4.13067 76.82 4.744 76.7666 5.448C77.0866 4.91467 77.4386 4.54667 77.8226 4.344C78.2173 4.14133 78.7133 4.04 79.3106 4.04C79.7586 4.04 80.148 4.088 80.4786 4.184C80.8093 4.28 81.0813 4.44533 81.2946 4.68C81.5186 4.904 81.684 5.20267 81.7906 5.576C81.8973 5.93867 81.9506 6.392 81.9506 6.936C81.9506 7.10667 81.9346 7.4 81.9026 7.816C81.8706 8.232 81.828 8.70667 81.7746 9.24C81.732 9.77333 81.684 10.3333 81.6306 10.92C81.588 11.496 81.5506 12.024 81.5186 12.504C81.508 12.6213 81.4973 12.712 81.4866 12.776C81.476 12.84 81.4546 12.888 81.4226 12.92C81.4013 12.952 81.364 12.9733 81.3106 12.984C81.2573 12.9947 81.1826 13 81.0866 13H80.5746C80.2333 13 79.956 12.968 79.7426 12.904C79.5293 12.84 79.364 12.7493 79.2466 12.632C79.1293 12.5147 79.044 12.3707 78.9906 12.2C78.948 12.0187 78.9266 11.816 78.9266 11.592C78.9266 11.4853 78.9266 11.384 78.9266 11.288C78.9373 11.192 78.948 11.1013 78.9586 11.016Z" fill="#F16C1E"/>
</svg>
