<svg width="32" height="33" viewBox="0 0 32 33" fill="none" xmlns="http://www.w3.org/2000/svg">
<path d="M15.75 5.24999V8.99999M15.75 5.24999C15.75 4.50832 16.0007 3.78329 16.4705 3.16661C16.9402 2.54993 17.6079 2.06928 18.389 1.78545C19.1702 1.50162 20.0297 1.42736 20.859 1.57206C21.6883 1.71675 22.45 2.0739 23.0479 2.59835C23.6458 3.12279 24.0529 3.79098 24.2179 4.51841C24.3828 5.24583 24.2981 5.99983 23.9746 6.68505C23.651 7.37027 23.1031 7.95594 22.4001 8.368C21.697 8.78005 20.8705 8.99999 20.025 8.99999H15.75M15.75 5.24999C15.75 4.50832 15.4993 3.78329 15.0295 3.16661C14.5598 2.54993 13.8921 2.06928 13.111 1.78545C12.3298 1.50162 11.4703 1.42736 10.641 1.57206C9.81173 1.71675 9.04999 2.0739 8.45213 2.59835C7.85426 3.12279 7.4471 3.79098 7.28215 4.51841C7.1172 5.24583 7.20186 5.99983 7.52542 6.68505C7.84899 7.37027 8.39692 7.95594 9.09994 8.368C9.80296 8.78005 10.6295 8.99999 11.475 8.99999H15.75" stroke="#2E2E2E" stroke-width="3" stroke-miterlimit="10" stroke-linecap="round"/>
<path d="M27.625 9H3.875C2.56332 9 1.5 10.1992 1.5 11.6786V15.6964C1.5 17.1757 2.56332 18.375 3.875 18.375H27.625C28.9367 18.375 30 17.1757 30 15.6964V11.6786C30 10.1992 28.9367 9 27.625 9Z" stroke="#2E2E2E" stroke-width="3" stroke-linecap="round" stroke-linejoin="round"/>
<path d="M28.1 18.3749V27.9473C28.1 28.8895 27.7096 29.7932 27.0148 30.4594C26.32 31.1257 25.3776 31.5 24.395 31.5H7.10499C6.12237 31.5 5.17999 31.1257 4.48516 30.4594C3.79034 29.7932 3.39999 28.8895 3.39999 27.9473V18.3749M15.75 9V31.5" stroke="#2E2E2E" stroke-width="3" stroke-linecap="round" stroke-linejoin="round"/>
</svg>
