<svg width="35" height="35" viewBox="0 0 35 35" fill="none" xmlns="http://www.w3.org/2000/svg">
<path d="M17.6246 7.32458C17.5243 7.22861 17.3908 7.17505 17.252 7.17505C17.1132 7.17505 16.9797 7.22861 16.8794 7.32458L4.47421 19.1752C4.42153 19.2256 4.37962 19.2861 4.35101 19.3532C4.3224 19.4203 4.30769 19.4924 4.30778 19.5653L4.30576 30.6875C4.30576 31.2594 4.53293 31.8079 4.93731 32.2122C5.34168 32.6166 5.89013 32.8438 6.46201 32.8438H12.9375C13.2234 32.8438 13.4977 32.7302 13.6998 32.528C13.902 32.3258 14.0156 32.0516 14.0156 31.7657V22.6016C14.0156 22.4586 14.0724 22.3215 14.1735 22.2204C14.2746 22.1193 14.4117 22.0625 14.5547 22.0625H19.9453C20.0883 22.0625 20.2254 22.1193 20.3265 22.2204C20.4276 22.3215 20.4844 22.4586 20.4844 22.6016V31.7657C20.4844 32.0516 20.598 32.3258 20.8001 32.528C21.0023 32.7302 21.2766 32.8438 21.5625 32.8438H28.0353C28.6072 32.8438 29.1556 32.6166 29.56 32.2122C29.9644 31.8079 30.1915 31.2594 30.1915 30.6875V19.5653C30.1916 19.4924 30.1769 19.4203 30.1483 19.3532C30.1197 19.2861 30.0778 19.2256 30.0251 19.1752L17.6246 7.32458Z" fill="#B6B3B3"/>
<path d="M33.0789 16.9515L28.0387 12.1296V4.8125C28.0387 4.52656 27.9251 4.25234 27.7229 4.05015C27.5207 3.84796 27.2465 3.73438 26.9605 3.73438H23.7262C23.4402 3.73438 23.166 3.84796 22.9638 4.05015C22.7616 4.25234 22.648 4.52656 22.648 4.8125V6.96875L18.7452 3.23709C18.38 2.86783 17.8369 2.65625 17.25 2.65625C16.6651 2.65625 16.1234 2.86783 15.7581 3.23776L1.42582 16.9502C1.00669 17.3545 0.954136 18.0195 1.33552 18.4575C1.43129 18.5681 1.54856 18.658 1.68018 18.7218C1.81181 18.7856 1.95504 18.8219 2.10115 18.8286C2.24727 18.8353 2.39322 18.8122 2.53011 18.7606C2.66701 18.7091 2.79199 18.6303 2.89746 18.5289L16.8794 5.16828C16.9797 5.07232 17.1132 5.01875 17.252 5.01875C17.3908 5.01875 17.5243 5.07232 17.6246 5.16828L31.6079 18.5289C31.8139 18.7265 32.0898 18.8343 32.3751 18.8287C32.6605 18.8232 32.932 18.7047 33.1301 18.4993C33.5438 18.0707 33.5095 17.3632 33.0789 16.9515Z" fill="#B6B3B3"/>
</svg>
