<svg width="35" height="35" viewBox="0 0 35 35" fill="none" xmlns="http://www.w3.org/2000/svg">
<path d="M17.6246 6.82458C17.5243 6.72861 17.3908 6.67505 17.252 6.67505C17.1132 6.67505 16.9797 6.72861 16.8794 6.82458L4.47421 18.6752C4.42153 18.7256 4.37962 18.7861 4.35101 18.8532C4.3224 18.9203 4.30769 18.9924 4.30778 19.0653L4.30576 30.1875C4.30576 30.7594 4.53293 31.3079 4.93731 31.7122C5.34168 32.1166 5.89013 32.3438 6.46201 32.3438H12.9375C13.2234 32.3438 13.4977 32.2302 13.6998 32.028C13.902 31.8258 14.0156 31.5516 14.0156 31.2657V22.1016C14.0156 21.9586 14.0724 21.8215 14.1735 21.7204C14.2746 21.6193 14.4117 21.5625 14.5547 21.5625H19.9453C20.0883 21.5625 20.2254 21.6193 20.3265 21.7204C20.4276 21.8215 20.4844 21.9586 20.4844 22.1016V31.2657C20.4844 31.5516 20.598 31.8258 20.8001 32.028C21.0023 32.2302 21.2766 32.3438 21.5625 32.3438H28.0353C28.6072 32.3438 29.1556 32.1166 29.56 31.7122C29.9644 31.3079 30.1915 30.7594 30.1915 30.1875V19.0653C30.1916 18.9924 30.1769 18.9203 30.1483 18.8532C30.1197 18.7861 30.0778 18.7256 30.0251 18.6752L17.6246 6.82458Z" fill="#2E2E2E"/>
<path d="M33.0789 16.4515L28.0387 11.6296V4.3125C28.0387 4.02656 27.9251 3.75234 27.7229 3.55015C27.5207 3.34796 27.2465 3.23438 26.9605 3.23438H23.7262C23.4402 3.23438 23.166 3.34796 22.9638 3.55015C22.7616 3.75234 22.648 4.02656 22.648 4.3125V6.46875L18.7452 2.73709C18.38 2.36783 17.8369 2.15625 17.25 2.15625C16.6651 2.15625 16.1234 2.36783 15.7581 2.73776L1.42582 16.4502C1.00669 16.8545 0.954136 17.5195 1.33552 17.9575C1.43129 18.0681 1.54856 18.158 1.68018 18.2218C1.81181 18.2856 1.95504 18.3219 2.10115 18.3286C2.24727 18.3353 2.39322 18.3122 2.53011 18.2606C2.66701 18.2091 2.79199 18.1303 2.89746 18.0289L16.8794 4.66828C16.9797 4.57232 17.1132 4.51875 17.252 4.51875C17.3908 4.51875 17.5243 4.57232 17.6246 4.66828L31.6079 18.0289C31.8139 18.2265 32.0898 18.3343 32.3751 18.3287C32.6605 18.3232 32.932 18.2047 33.1301 17.9993C33.5438 17.5707 33.5095 16.8632 33.0789 16.4515Z" fill="#2E2E2E"/>
</svg>
