<svg width="42" height="39" viewBox="0 0 42 39" fill="none" xmlns="http://www.w3.org/2000/svg">
<rect width="42" height="39" rx="5" fill="#FFF0D9"/>
<path d="M30.22 19C30.7178 18.4524 30.9956 17.7401 31 17C31 16.2044 30.6839 15.4413 30.1213 14.8787C29.5587 14.3161 28.7956 14 28 14H22.82C22.9797 13.5482 23.0289 13.0647 22.9634 12.5899C22.8979 12.1152 22.7196 11.6631 22.4435 11.2714C22.1674 10.8797 21.8014 10.5599 21.3763 10.3387C20.9512 10.1175 20.4792 10.0013 20 10H14C13.2044 10 12.4413 10.3161 11.8787 10.8787C11.3161 11.4413 11 12.2044 11 13C11.0044 13.7401 11.2822 14.4524 11.78 15C11.288 15.55 11.0161 16.2621 11.0161 17C11.0161 17.7379 11.288 18.45 11.78 19C11.288 19.55 11.0161 20.2621 11.0161 21C11.0161 21.7379 11.288 22.45 11.78 23C11.2822 23.5476 11.0044 24.2599 11 25C11 25.7956 11.3161 26.5587 11.8787 27.1213C12.4413 27.6839 13.2044 28 14 28H28C28.5778 27.9969 29.1423 27.8271 29.6259 27.5108C30.1094 27.1946 30.4914 26.7455 30.7259 26.2174C30.9603 25.6894 31.0373 25.1049 30.9476 24.5341C30.8578 23.9633 30.6052 23.4306 30.22 23C30.712 22.45 30.9839 21.7379 30.9839 21C30.9839 20.2621 30.712 19.55 30.22 19ZM20 26H14C13.7348 26 13.4804 25.8946 13.2929 25.7071C13.1054 25.5196 13 25.2652 13 25C13 24.7348 13.1054 24.4804 13.2929 24.2929C13.4804 24.1054 13.7348 24 14 24H20C20.2652 24 20.5196 24.1054 20.7071 24.2929C20.8946 24.4804 21 24.7348 21 25C21 25.2652 20.8946 25.5196 20.7071 25.7071C20.5196 25.8946 20.2652 26 20 26ZM20 22H14C13.7348 22 13.4804 21.8946 13.2929 21.7071C13.1054 21.5196 13 21.2652 13 21C13 20.7348 13.1054 20.4804 13.2929 20.2929C13.4804 20.1054 13.7348 20 14 20H20C20.2652 20 20.5196 20.1054 20.7071 20.2929C20.8946 20.4804 21 20.7348 21 21C21 21.2652 20.8946 21.5196 20.7071 21.7071C20.5196 21.8946 20.2652 22 20 22ZM20 18H14C13.7348 18 13.4804 17.8946 13.2929 17.7071C13.1054 17.5196 13 17.2652 13 17C13 16.7348 13.1054 16.4804 13.2929 16.2929C13.4804 16.1054 13.7348 16 14 16H20C20.2652 16 20.5196 16.1054 20.7071 16.2929C20.8946 16.4804 21 16.7348 21 17C21 17.2652 20.8946 17.5196 20.7071 17.7071C20.5196 17.8946 20.2652 18 20 18ZM20 14H14C13.7348 14 13.4804 13.8946 13.2929 13.7071C13.1054 13.5196 13 13.2652 13 13C13 12.7348 13.1054 12.4804 13.2929 12.2929C13.4804 12.1054 13.7348 12 14 12H20C20.2652 12 20.5196 12.1054 20.7071 12.2929C20.8946 12.4804 21 12.7348 21 13C21 13.2652 20.8946 13.5196 20.7071 13.7071C20.5196 13.8946 20.2652 14 20 14ZM28.69 25.71C28.6014 25.8035 28.4942 25.8776 28.3755 25.9275C28.2567 25.9774 28.1288 26.0021 28 26H22.82C23.0598 25.3549 23.0598 24.6451 22.82 24H28C28.2652 24 28.5196 24.1054 28.7071 24.2929C28.8946 24.4804 29 24.7348 29 25C28.9981 25.133 28.9698 25.2643 28.9165 25.3862C28.8633 25.5082 28.7863 25.6182 28.69 25.71ZM28.69 21.71C28.6014 21.8035 28.4942 21.8776 28.3755 21.9275C28.2567 21.9774 28.1288 22.0021 28 22H22.82C23.0598 21.3549 23.0598 20.6451 22.82 20H28C28.2652 20 28.5196 20.1054 28.7071 20.2929C28.8946 20.4804 29 20.7348 29 21C28.9981 21.133 28.9698 21.2643 28.9165 21.3862C28.8633 21.5082 28.7863 21.6182 28.69 21.71ZM28.69 17.71C28.6014 17.8035 28.4942 17.8776 28.3755 17.9275C28.2567 17.9774 28.1288 18.0021 28 18H22.82C23.0598 17.3549 23.0598 16.6451 22.82 16H28C28.2652 16 28.5196 16.1054 28.7071 16.2929C28.8946 16.4804 29 16.7348 29 17C28.9981 17.133 28.9698 17.2643 28.9165 17.3862C28.8633 17.5082 28.7863 17.6182 28.69 17.71Z" fill="#F7A72E"/>
</svg>
