<svg width="42" height="39" viewBox="0 0 42 39" fill="none" xmlns="http://www.w3.org/2000/svg">
<rect width="42" height="39" rx="5" fill="#FFDBD7"/>
<path d="M21.5 11.5V14H24.35C24.9137 14 25.4647 13.8534 25.9334 13.5787C26.402 13.304 26.7673 12.9135 26.983 12.4567C27.1988 11.9999 27.2552 11.4972 27.1452 11.0123C27.0353 10.5273 26.7638 10.0819 26.3652 9.73223C25.9667 9.3826 25.4588 9.1445 24.906 9.04804C24.3531 8.95157 23.7801 9.00108 23.2593 9.1903C22.7386 9.37952 22.2935 9.69995 21.9803 10.1111C21.6671 10.5222 21.5 11.0055 21.5 11.5ZM21.5 11.5V14H18.65C18.0863 14 17.5353 13.8534 17.0666 13.5787C16.5979 13.304 16.2326 12.9135 16.0169 12.4567C15.8012 11.9999 15.7448 11.4972 15.8548 11.0123C15.9647 10.5273 16.2362 10.0819 16.6347 9.73223C17.0333 9.3826 17.5411 9.1445 18.094 9.04804C18.6468 8.95157 19.2199 9.00108 19.7406 9.1903C20.2614 9.37952 20.7065 9.69995 21.0197 10.1111C21.3328 10.5222 21.5 11.0055 21.5 11.5Z" fill="#FFDBD7"/>
<path d="M21.5 11.5V14M21.5 11.5C21.5 11.0055 21.6671 10.5222 21.9803 10.1111C22.2935 9.69995 22.7386 9.37952 23.2593 9.1903C23.7801 9.00108 24.3531 8.95157 24.906 9.04804C25.4588 9.1445 25.9667 9.3826 26.3652 9.73223C26.7638 10.0819 27.0353 10.5273 27.1452 11.0123C27.2552 11.4972 27.1988 11.9999 26.983 12.4567C26.7673 12.9135 26.402 13.304 25.9334 13.5787C25.4647 13.8534 24.9137 14 24.35 14H21.5M21.5 11.5C21.5 11.0055 21.3328 10.5222 21.0197 10.1111C20.7065 9.69995 20.2614 9.37952 19.7406 9.1903C19.2199 9.00108 18.6468 8.95157 18.094 9.04804C17.5411 9.1445 17.0333 9.3826 16.6347 9.73223C16.2362 10.0819 15.9647 10.5273 15.8548 11.0123C15.7448 11.4972 15.8012 11.9999 16.0169 12.4567C16.2326 12.9135 16.5979 13.304 17.0666 13.5787C17.5353 13.8534 18.0863 14 18.65 14H21.5" stroke="#F46262" stroke-width="2" stroke-miterlimit="10" stroke-linecap="round"/>
<path d="M29.4167 14H13.5833C12.7089 14 12 14.7995 12 15.7857V18.4643C12 19.4505 12.7089 20.25 13.5833 20.25H29.4167C30.2911 20.25 31 19.4505 31 18.4643V15.7857C31 14.7995 30.2911 14 29.4167 14Z" fill="#FFDBD7" stroke="#F46262" stroke-width="2" stroke-linecap="round" stroke-linejoin="round"/>
<path d="M29.7333 20.2499V26.6316C29.7333 27.2597 29.4731 27.8621 29.0099 28.3063C28.5467 28.7504 27.9184 29 27.2633 29H15.7367C15.0816 29 14.4533 28.7504 13.9901 28.3063C13.5269 27.8621 13.2667 27.2597 13.2667 26.6316V20.2499M21.5 14V29V14Z" fill="#FFDBD7"/>
<path d="M29.7333 20.2499V26.6316C29.7333 27.2597 29.4731 27.8621 29.0099 28.3063C28.5467 28.7504 27.9184 29 27.2633 29H15.7367C15.0816 29 14.4533 28.7504 13.9901 28.3063C13.5269 27.8621 13.2667 27.2597 13.2667 26.6316V20.2499M21.5 14V29" stroke="#F46262" stroke-width="2" stroke-linecap="round" stroke-linejoin="round"/>
</svg>
