<svg width="30" height="29" viewBox="0 0 30 29" fill="none" xmlns="http://www.w3.org/2000/svg">
<path d="M15 0C12.0852 0.00534883 9.23487 0.829258 6.79626 2.37137C4.35765 3.91349 2.43598 6.10725 1.26532 8.68544C0.0946685 11.2636 -0.274448 14.115 0.202934 16.8922C0.680316 19.6694 1.98359 22.2526 3.95402 24.3271C5.36133 25.8005 7.06935 26.9763 8.97045 27.7806C10.8716 28.5848 12.9245 29 15 29C17.0755 29 19.1284 28.5848 21.0295 27.7806C22.9307 26.9763 24.6387 25.8005 26.046 24.3271C28.0164 22.2526 29.3197 19.6694 29.7971 16.8922C30.2745 14.115 29.9053 11.2636 28.7347 8.68544C27.564 6.10725 25.6424 3.91349 23.2037 2.37137C20.7651 0.829258 17.9148 0.00534883 15 0ZM15 26.127C11.8868 26.1224 8.89678 24.9517 6.65916 22.8611C7.33851 21.2638 8.49419 19.8976 9.97934 18.9361C11.4645 17.9746 13.2121 17.4613 15 17.4613C16.7879 17.4613 18.5355 17.9746 20.0207 18.9361C21.5058 19.8976 22.6615 21.2638 23.3408 22.8611C21.1032 24.9517 18.1132 26.1224 15 26.127ZM11.9943 11.612C11.9943 11.0378 12.1706 10.4766 12.5008 9.99918C12.8311 9.52179 13.3005 9.1497 13.8498 8.92998C14.399 8.71026 15.0033 8.65277 15.5864 8.76478C16.1694 8.87679 16.705 9.15328 17.1254 9.55927C17.5457 9.96526 17.832 10.4825 17.948 11.0457C18.0639 11.6088 18.0044 12.1925 17.7769 12.7229C17.5494 13.2534 17.1642 13.7068 16.6699 14.0258C16.1756 14.3447 15.5945 14.515 15 14.515C14.2028 14.515 13.4383 14.2092 12.8746 13.6647C12.311 13.1203 11.9943 12.3819 11.9943 11.612ZM25.3847 20.321C24.042 18.1028 21.9754 16.3773 19.5086 15.4149C20.2738 14.5769 20.7724 13.5435 20.9445 12.4385C21.1166 11.3336 20.955 10.2042 20.479 9.18582C20.003 8.16742 19.2329 7.30331 18.2611 6.69717C17.2892 6.09104 16.1569 5.76862 15 5.76862C13.8431 5.76862 12.7108 6.09104 11.7389 6.69717C10.7671 7.30331 9.99695 8.16742 9.52097 9.18582C9.04498 10.2042 8.88336 11.3336 9.0555 12.4385C9.22764 13.5435 9.72623 14.5769 10.4914 15.4149C8.02465 16.3773 5.95803 18.1028 4.61528 20.321C3.54516 18.5605 2.97975 16.5565 2.97716 14.515C2.97716 11.4353 4.24385 8.48175 6.49857 6.30408C8.75329 4.1264 11.8113 2.903 15 2.903C18.1887 2.903 21.2467 4.1264 23.5014 6.30408C25.7561 8.48175 27.0228 11.4353 27.0228 14.515C27.0203 16.5565 26.4548 18.5605 25.3847 20.321Z" fill="#B6B3B3"/>
</svg>
