<svg width="42" height="39" viewBox="0 0 42 39" fill="none" xmlns="http://www.w3.org/2000/svg">
<rect width="42" height="39" rx="5" fill="#C4F5FF"/>
<path fill-rule="evenodd" clip-rule="evenodd" d="M21.75 13C21.75 12.5858 21.4142 12.25 21 12.25C20.5858 12.25 20.25 12.5858 20.25 13V13.3081C19.9232 13.39 19.6026 13.5181 19.2973 13.6944C16.5754 15.2659 16.9214 19.2989 19.8711 20.3839L20.25 20.5233L20.25 25.2195C19.7151 25.0686 19.2372 24.717 18.938 24.1988L18.5624 23.5483C18.3553 23.1895 17.8966 23.0666 17.5379 23.2737C17.1792 23.4808 17.0563 23.9395 17.2634 24.2983L17.639 24.9488C18.2174 25.9507 19.1927 26.5796 20.25 26.7535L20.25 27C20.25 27.4142 20.5858 27.75 21 27.75C21.4142 27.75 21.75 27.4142 21.75 27L21.75 26.692C22.0768 26.61 22.3975 26.4819 22.7028 26.3056C25.4247 24.7341 25.0787 20.7011 22.129 19.6161L21.75 19.4767L21.75 14.7805C22.2849 14.9314 22.7629 15.283 23.0621 15.8012L23.4377 16.4517C23.6448 16.8105 24.1035 16.9334 24.4622 16.7263C24.8209 16.5192 24.9438 16.0605 24.7367 15.7017L24.3611 15.0512C23.7827 14.0493 22.8074 13.4203 21.75 13.2465V13ZM20.0473 14.9934C20.1139 14.955 20.1815 14.9204 20.25 14.8897L20.25 18.92C18.623 18.2015 18.4705 15.9038 20.0473 14.9934ZM21.75 25.1103L21.75 21.08C23.3771 21.7984 23.5296 24.0962 21.9528 25.0066C21.8862 25.045 21.8185 25.0796 21.75 25.1103Z" fill="#22CCED"/>
<path fill-rule="evenodd" clip-rule="evenodd" d="M25.4635 10.3737C24.3214 10.25 22.8818 10.25 21.0452 10.25H20.9548C19.1182 10.25 17.6786 10.25 16.5365 10.3737C15.3709 10.5 14.4266 10.7623 13.6202 11.3482C13.1321 11.7028 12.7028 12.1321 12.3482 12.6202C11.7623 13.4266 11.5 14.3709 11.3737 15.5365C11.25 16.6786 11.25 18.1182 11.25 19.9548V20.0452C11.25 21.8818 11.25 23.3214 11.3737 24.4635C11.5 25.6291 11.7623 26.5734 12.3482 27.3798C12.7028 27.8679 13.1321 28.2972 13.6202 28.6518C14.4266 29.2377 15.3709 29.5 16.5365 29.6263C17.6786 29.75 19.1182 29.75 20.9547 29.75H21.0453C22.8818 29.75 24.3214 29.75 25.4635 29.6263C26.6291 29.5 27.5734 29.2377 28.3798 28.6518C28.8679 28.2972 29.2972 27.8679 29.6518 27.3798C30.2377 26.5734 30.5 25.6291 30.6263 24.4635C30.75 23.3214 30.75 21.8818 30.75 20.0453V19.9547C30.75 18.1182 30.75 16.6786 30.6263 15.5365C30.5 14.3709 30.2377 13.4266 29.6518 12.6202C29.2972 12.1321 28.8679 11.7028 28.3798 11.3482C27.5734 10.7623 26.6291 10.5 25.4635 10.3737ZM14.5019 12.5617C15.0099 12.1926 15.6601 11.9775 16.698 11.865C17.75 11.751 19.1084 11.75 21 11.75C22.8916 11.75 24.25 11.751 25.302 11.865C26.3399 11.9775 26.9901 12.1926 27.4981 12.5617C27.8589 12.8238 28.1762 13.1411 28.4383 13.5019C28.8074 14.0099 29.0225 14.6601 29.135 15.698C29.249 16.75 29.25 18.1084 29.25 20C29.25 21.8916 29.249 23.25 29.135 24.302C29.0225 25.3399 28.8074 25.9901 28.4383 26.4981C28.1762 26.8589 27.8589 27.1762 27.4981 27.4383C26.9901 27.8074 26.3399 28.0225 25.302 28.135C24.25 28.249 22.8916 28.25 21 28.25C19.1084 28.25 17.75 28.249 16.698 28.135C15.6601 28.0225 15.0099 27.8074 14.5019 27.4383C14.1411 27.1762 13.8238 26.8589 13.5617 26.4981C13.1926 25.9901 12.9775 25.3399 12.865 24.302C12.751 23.25 12.75 21.8916 12.75 20C12.75 18.1084 12.751 16.75 12.865 15.698C12.9775 14.6601 13.1926 14.0099 13.5617 13.5019C13.8238 13.1411 14.1411 12.8238 14.5019 12.5617Z" fill="#22CCED"/>
</svg>
