<svg width="42" height="39" viewBox="0 0 42 39" fill="none" xmlns="http://www.w3.org/2000/svg">
<rect width="42" height="39" rx="5" fill="#F0D8FF"/>
<path fill-rule="evenodd" clip-rule="evenodd" d="M19.85 8C16.4544 8 13.8272 10.976 14.2484 14.3454L14.3278 14.9802C14.4439 15.9092 14.1046 16.8371 13.4165 17.4719C11.9909 18.7875 11.5948 20.8815 12.4414 22.6269L12.5448 22.84C13.3339 24.4669 14.9832 25.5 16.7915 25.5H25.0123C26.572 25.5 28.0236 24.7032 28.8611 23.3873C30.0432 21.5299 29.7301 19.0932 28.1168 17.595L28.0729 17.5542C27.3344 16.8683 26.9708 15.8691 27.0958 14.869L27.1604 14.3521C27.582 10.9792 24.952 8 21.5529 8H19.85ZM15.7368 14.1593C15.4276 11.6853 17.3567 9.5 19.85 9.5H21.5529C24.0498 9.5 25.9817 11.6884 25.672 14.166L25.6074 14.683C25.4225 16.1617 25.9602 17.6392 27.0522 18.6533L27.0961 18.6941C28.1789 19.6997 28.3891 21.3352 27.5956 22.582C27.0335 23.4652 26.0592 24 25.0123 24H16.7915C15.5579 24 14.4327 23.2952 13.8944 22.1853L13.791 21.9723C13.2329 20.8218 13.494 19.4415 14.4338 18.5743C15.4776 17.6111 15.9923 16.2035 15.8162 14.7942L15.7368 14.1593Z" fill="#7041F7"/>
<path d="M18.5334 27.3C18.2849 26.9686 17.8148 26.9015 17.4834 27.15C17.152 27.3985 17.0849 27.8686 17.3334 28.2L17.6334 28.6C19.2834 30.8 22.5834 30.8 24.2334 28.6L24.5334 28.2C24.7819 27.8686 24.7148 27.3985 24.3834 27.15C24.052 26.9015 23.5819 26.9686 23.3334 27.3L23.0334 27.7C21.9834 29.1 19.8834 29.1 18.8334 27.7L18.5334 27.3Z" fill="#7041F7"/>
</svg>
